<?xml version="1.0" encoding="utf-8" standalone="no"?>
<!DOCTYPE svg PUBLIC "-//W3C//DTD SVG 1.1//EN"
  "http://www.w3.org/Graphics/SVG/1.1/DTD/svg11.dtd">
<!-- Created with matplotlib (http://matplotlib.org/) -->
<svg height="345.6pt" version="1.1" viewBox="0 0 460.8 345.6" width="460.8pt" xmlns="http://www.w3.org/2000/svg" xmlns:xlink="http://www.w3.org/1999/xlink">
 <defs>
  <style type="text/css">
*{stroke-linecap:butt;stroke-linejoin:round;}
  </style>
 </defs>
 <g id="figure_1">
  <g id="patch_1">
   <path d="M 0 345.6 
L 460.8 345.6 
L 460.8 0 
L 0 0 
z
" style="fill:#ffffff;"/>
  </g>
  <g id="axes_1">
   <g id="patch_2">
    <path d="M 43.09 270.2 
L 447.48 270.2 
L 447.48 25.44 
L 43.09 25.44 
z
" style="fill:#ffffff;"/>
   </g>
   <g id="matplotlib.axis_1">
    <g id="xtick_1">
     <g id="line2d_1">
      <defs>
       <path d="M 0 0 
L 0 3.5 
" id="ma41ada4694" style="stroke:#000000;stroke-width:0.8;"/>
      </defs>
      <g>
       <use style="stroke:#000000;stroke-width:0.8;" x="61.471364" xlink:href="#ma41ada4694" y="270.2"/>
      </g>
     </g>
     <g id="text_1">
      <!-- 2020-03-19 -->
      <defs>
       <path d="M 19.1875 8.296875 
L 53.609375 8.296875 
L 53.609375 0 
L 7.328125 0 
L 7.328125 8.296875 
Q 12.9375 14.109375 22.625 23.890625 
Q 32.328125 33.6875 34.8125 36.53125 
Q 39.546875 41.84375 41.421875 45.53125 
Q 43.3125 49.21875 43.3125 52.78125 
Q 43.3125 58.59375 39.234375 62.25 
Q 35.15625 65.921875 28.609375 65.921875 
Q 23.96875 65.921875 18.8125 64.3125 
Q 13.671875 62.703125 7.8125 59.421875 
L 7.8125 69.390625 
Q 13.765625 71.78125 18.9375 73 
Q 24.125 74.21875 28.421875 74.21875 
Q 39.75 74.21875 46.484375 68.546875 
Q 53.21875 62.890625 53.21875 53.421875 
Q 53.21875 48.921875 51.53125 44.890625 
Q 49.859375 40.875 45.40625 35.40625 
Q 44.1875 33.984375 37.640625 27.21875 
Q 31.109375 20.453125 19.1875 8.296875 
z
" id="DejaVuSans-32"/>
       <path d="M 31.78125 66.40625 
Q 24.171875 66.40625 20.328125 58.90625 
Q 16.5 51.421875 16.5 36.375 
Q 16.5 21.390625 20.328125 13.890625 
Q 24.171875 6.390625 31.78125 6.390625 
Q 39.453125 6.390625 43.28125 13.890625 
Q 47.125 21.390625 47.125 36.375 
Q 47.125 51.421875 43.28125 58.90625 
Q 39.453125 66.40625 31.78125 66.40625 
z
M 31.78125 74.21875 
Q 44.046875 74.21875 50.515625 64.515625 
Q 56.984375 54.828125 56.984375 36.375 
Q 56.984375 17.96875 50.515625 8.265625 
Q 44.046875 -1.421875 31.78125 -1.421875 
Q 19.53125 -1.421875 13.0625 8.265625 
Q 6.59375 17.96875 6.59375 36.375 
Q 6.59375 54.828125 13.0625 64.515625 
Q 19.53125 74.21875 31.78125 74.21875 
z
" id="DejaVuSans-30"/>
       <path d="M 4.890625 31.390625 
L 31.203125 31.390625 
L 31.203125 23.390625 
L 4.890625 23.390625 
z
" id="DejaVuSans-2d"/>
       <path d="M 40.578125 39.3125 
Q 47.65625 37.796875 51.625 33 
Q 55.609375 28.21875 55.609375 21.1875 
Q 55.609375 10.40625 48.1875 4.484375 
Q 40.765625 -1.421875 27.09375 -1.421875 
Q 22.515625 -1.421875 17.65625 -0.515625 
Q 12.796875 0.390625 7.625 2.203125 
L 7.625 11.71875 
Q 11.71875 9.328125 16.59375 8.109375 
Q 21.484375 6.890625 26.8125 6.890625 
Q 36.078125 6.890625 40.9375 10.546875 
Q 45.796875 14.203125 45.796875 21.1875 
Q 45.796875 27.640625 41.28125 31.265625 
Q 36.765625 34.90625 28.71875 34.90625 
L 20.21875 34.90625 
L 20.21875 43.015625 
L 29.109375 43.015625 
Q 36.375 43.015625 40.234375 45.921875 
Q 44.09375 48.828125 44.09375 54.296875 
Q 44.09375 59.90625 40.109375 62.90625 
Q 36.140625 65.921875 28.71875 65.921875 
Q 24.65625 65.921875 20.015625 65.03125 
Q 15.375 64.15625 9.8125 62.3125 
L 9.8125 71.09375 
Q 15.4375 72.65625 20.34375 73.4375 
Q 25.25 74.21875 29.59375 74.21875 
Q 40.828125 74.21875 47.359375 69.109375 
Q 53.90625 64.015625 53.90625 55.328125 
Q 53.90625 49.265625 50.4375 45.09375 
Q 46.96875 40.921875 40.578125 39.3125 
z
" id="DejaVuSans-33"/>
       <path d="M 12.40625 8.296875 
L 28.515625 8.296875 
L 28.515625 63.921875 
L 10.984375 60.40625 
L 10.984375 69.390625 
L 28.421875 72.90625 
L 38.28125 72.90625 
L 38.28125 8.296875 
L 54.390625 8.296875 
L 54.390625 0 
L 12.40625 0 
z
" id="DejaVuSans-31"/>
       <path d="M 10.984375 1.515625 
L 10.984375 10.5 
Q 14.703125 8.734375 18.5 7.8125 
Q 22.3125 6.890625 25.984375 6.890625 
Q 35.75 6.890625 40.890625 13.453125 
Q 46.046875 20.015625 46.78125 33.40625 
Q 43.953125 29.203125 39.59375 26.953125 
Q 35.25 24.703125 29.984375 24.703125 
Q 19.046875 24.703125 12.671875 31.3125 
Q 6.296875 37.9375 6.296875 49.421875 
Q 6.296875 60.640625 12.9375 67.421875 
Q 19.578125 74.21875 30.609375 74.21875 
Q 43.265625 74.21875 49.921875 64.515625 
Q 56.59375 54.828125 56.59375 36.375 
Q 56.59375 19.140625 48.40625 8.859375 
Q 40.234375 -1.421875 26.421875 -1.421875 
Q 22.703125 -1.421875 18.890625 -0.6875 
Q 15.09375 0.046875 10.984375 1.515625 
z
M 30.609375 32.421875 
Q 37.25 32.421875 41.125 36.953125 
Q 45.015625 41.5 45.015625 49.421875 
Q 45.015625 57.28125 41.125 61.84375 
Q 37.25 66.40625 30.609375 66.40625 
Q 23.96875 66.40625 20.09375 61.84375 
Q 16.21875 57.28125 16.21875 49.421875 
Q 16.21875 41.5 20.09375 36.953125 
Q 23.96875 32.421875 30.609375 32.421875 
z
" id="DejaVuSans-39"/>
      </defs>
      <g transform="translate(64.230739 335.315625)rotate(-90)scale(0.1 -0.1)">
       <use xlink:href="#DejaVuSans-32"/>
       <use x="63.623047" xlink:href="#DejaVuSans-30"/>
       <use x="127.246094" xlink:href="#DejaVuSans-32"/>
       <use x="190.869141" xlink:href="#DejaVuSans-30"/>
       <use x="254.492188" xlink:href="#DejaVuSans-2d"/>
       <use x="290.576172" xlink:href="#DejaVuSans-30"/>
       <use x="354.199219" xlink:href="#DejaVuSans-33"/>
       <use x="417.822266" xlink:href="#DejaVuSans-2d"/>
       <use x="453.90625" xlink:href="#DejaVuSans-31"/>
       <use x="517.529297" xlink:href="#DejaVuSans-39"/>
      </g>
     </g>
    </g>
    <g id="xtick_2">
     <g id="line2d_2">
      <g>
       <use style="stroke:#000000;stroke-width:0.8;" x="76.176455" xlink:href="#ma41ada4694" y="270.2"/>
      </g>
     </g>
     <g id="text_2">
      <!-- 2020-03-20 -->
      <g transform="translate(78.93583 335.315625)rotate(-90)scale(0.1 -0.1)">
       <use xlink:href="#DejaVuSans-32"/>
       <use x="63.623047" xlink:href="#DejaVuSans-30"/>
       <use x="127.246094" xlink:href="#DejaVuSans-32"/>
       <use x="190.869141" xlink:href="#DejaVuSans-30"/>
       <use x="254.492188" xlink:href="#DejaVuSans-2d"/>
       <use x="290.576172" xlink:href="#DejaVuSans-30"/>
       <use x="354.199219" xlink:href="#DejaVuSans-33"/>
       <use x="417.822266" xlink:href="#DejaVuSans-2d"/>
       <use x="453.90625" xlink:href="#DejaVuSans-32"/>
       <use x="517.529297" xlink:href="#DejaVuSans-30"/>
      </g>
     </g>
    </g>
    <g id="xtick_3">
     <g id="line2d_3">
      <g>
       <use style="stroke:#000000;stroke-width:0.8;" x="90.881545" xlink:href="#ma41ada4694" y="270.2"/>
      </g>
     </g>
     <g id="text_3">
      <!-- 2020-03-21 -->
      <g transform="translate(93.64092 335.315625)rotate(-90)scale(0.1 -0.1)">
       <use xlink:href="#DejaVuSans-32"/>
       <use x="63.623047" xlink:href="#DejaVuSans-30"/>
       <use x="127.246094" xlink:href="#DejaVuSans-32"/>
       <use x="190.869141" xlink:href="#DejaVuSans-30"/>
       <use x="254.492188" xlink:href="#DejaVuSans-2d"/>
       <use x="290.576172" xlink:href="#DejaVuSans-30"/>
       <use x="354.199219" xlink:href="#DejaVuSans-33"/>
       <use x="417.822266" xlink:href="#DejaVuSans-2d"/>
       <use x="453.90625" xlink:href="#DejaVuSans-32"/>
       <use x="517.529297" xlink:href="#DejaVuSans-31"/>
      </g>
     </g>
    </g>
    <g id="xtick_4">
     <g id="line2d_4">
      <g>
       <use style="stroke:#000000;stroke-width:0.8;" x="105.586636" xlink:href="#ma41ada4694" y="270.2"/>
      </g>
     </g>
     <g id="text_4">
      <!-- 2020-03-22 -->
      <g transform="translate(108.346011 335.315625)rotate(-90)scale(0.1 -0.1)">
       <use xlink:href="#DejaVuSans-32"/>
       <use x="63.623047" xlink:href="#DejaVuSans-30"/>
       <use x="127.246094" xlink:href="#DejaVuSans-32"/>
       <use x="190.869141" xlink:href="#DejaVuSans-30"/>
       <use x="254.492188" xlink:href="#DejaVuSans-2d"/>
       <use x="290.576172" xlink:href="#DejaVuSans-30"/>
       <use x="354.199219" xlink:href="#DejaVuSans-33"/>
       <use x="417.822266" xlink:href="#DejaVuSans-2d"/>
       <use x="453.90625" xlink:href="#DejaVuSans-32"/>
       <use x="517.529297" xlink:href="#DejaVuSans-32"/>
      </g>
     </g>
    </g>
    <g id="xtick_5">
     <g id="line2d_5">
      <g>
       <use style="stroke:#000000;stroke-width:0.8;" x="120.291727" xlink:href="#ma41ada4694" y="270.2"/>
      </g>
     </g>
     <g id="text_5">
      <!-- 2020-03-23 -->
      <g transform="translate(123.051102 335.315625)rotate(-90)scale(0.1 -0.1)">
       <use xlink:href="#DejaVuSans-32"/>
       <use x="63.623047" xlink:href="#DejaVuSans-30"/>
       <use x="127.246094" xlink:href="#DejaVuSans-32"/>
       <use x="190.869141" xlink:href="#DejaVuSans-30"/>
       <use x="254.492188" xlink:href="#DejaVuSans-2d"/>
       <use x="290.576172" xlink:href="#DejaVuSans-30"/>
       <use x="354.199219" xlink:href="#DejaVuSans-33"/>
       <use x="417.822266" xlink:href="#DejaVuSans-2d"/>
       <use x="453.90625" xlink:href="#DejaVuSans-32"/>
       <use x="517.529297" xlink:href="#DejaVuSans-33"/>
      </g>
     </g>
    </g>
    <g id="xtick_6">
     <g id="line2d_6">
      <g>
       <use style="stroke:#000000;stroke-width:0.8;" x="134.996818" xlink:href="#ma41ada4694" y="270.2"/>
      </g>
     </g>
     <g id="text_6">
      <!-- 2020-03-24 -->
      <defs>
       <path d="M 37.796875 64.3125 
L 12.890625 25.390625 
L 37.796875 25.390625 
z
M 35.203125 72.90625 
L 47.609375 72.90625 
L 47.609375 25.390625 
L 58.015625 25.390625 
L 58.015625 17.1875 
L 47.609375 17.1875 
L 47.609375 0 
L 37.796875 0 
L 37.796875 17.1875 
L 4.890625 17.1875 
L 4.890625 26.703125 
z
" id="DejaVuSans-34"/>
      </defs>
      <g transform="translate(137.756193 335.315625)rotate(-90)scale(0.1 -0.1)">
       <use xlink:href="#DejaVuSans-32"/>
       <use x="63.623047" xlink:href="#DejaVuSans-30"/>
       <use x="127.246094" xlink:href="#DejaVuSans-32"/>
       <use x="190.869141" xlink:href="#DejaVuSans-30"/>
       <use x="254.492188" xlink:href="#DejaVuSans-2d"/>
       <use x="290.576172" xlink:href="#DejaVuSans-30"/>
       <use x="354.199219" xlink:href="#DejaVuSans-33"/>
       <use x="417.822266" xlink:href="#DejaVuSans-2d"/>
       <use x="453.90625" xlink:href="#DejaVuSans-32"/>
       <use x="517.529297" xlink:href="#DejaVuSans-34"/>
      </g>
     </g>
    </g>
    <g id="xtick_7">
     <g id="line2d_7">
      <g>
       <use style="stroke:#000000;stroke-width:0.8;" x="149.701909" xlink:href="#ma41ada4694" y="270.2"/>
      </g>
     </g>
     <g id="text_7">
      <!-- 2020-03-25 -->
      <defs>
       <path d="M 10.796875 72.90625 
L 49.515625 72.90625 
L 49.515625 64.59375 
L 19.828125 64.59375 
L 19.828125 46.734375 
Q 21.96875 47.46875 24.109375 47.828125 
Q 26.265625 48.1875 28.421875 48.1875 
Q 40.625 48.1875 47.75 41.5 
Q 54.890625 34.8125 54.890625 23.390625 
Q 54.890625 11.625 47.5625 5.09375 
Q 40.234375 -1.421875 26.90625 -1.421875 
Q 22.3125 -1.421875 17.546875 -0.640625 
Q 12.796875 0.140625 7.71875 1.703125 
L 7.71875 11.625 
Q 12.109375 9.234375 16.796875 8.0625 
Q 21.484375 6.890625 26.703125 6.890625 
Q 35.15625 6.890625 40.078125 11.328125 
Q 45.015625 15.765625 45.015625 23.390625 
Q 45.015625 31 40.078125 35.4375 
Q 35.15625 39.890625 26.703125 39.890625 
Q 22.75 39.890625 18.8125 39.015625 
Q 14.890625 38.140625 10.796875 36.28125 
z
" id="DejaVuSans-35"/>
      </defs>
      <g transform="translate(152.461284 335.315625)rotate(-90)scale(0.1 -0.1)">
       <use xlink:href="#DejaVuSans-32"/>
       <use x="63.623047" xlink:href="#DejaVuSans-30"/>
       <use x="127.246094" xlink:href="#DejaVuSans-32"/>
       <use x="190.869141" xlink:href="#DejaVuSans-30"/>
       <use x="254.492188" xlink:href="#DejaVuSans-2d"/>
       <use x="290.576172" xlink:href="#DejaVuSans-30"/>
       <use x="354.199219" xlink:href="#DejaVuSans-33"/>
       <use x="417.822266" xlink:href="#DejaVuSans-2d"/>
       <use x="453.90625" xlink:href="#DejaVuSans-32"/>
       <use x="517.529297" xlink:href="#DejaVuSans-35"/>
      </g>
     </g>
    </g>
    <g id="xtick_8">
     <g id="line2d_8">
      <g>
       <use style="stroke:#000000;stroke-width:0.8;" x="164.407" xlink:href="#ma41ada4694" y="270.2"/>
      </g>
     </g>
     <g id="text_8">
      <!-- 2020-03-26 -->
      <defs>
       <path d="M 33.015625 40.375 
Q 26.375 40.375 22.484375 35.828125 
Q 18.609375 31.296875 18.609375 23.390625 
Q 18.609375 15.53125 22.484375 10.953125 
Q 26.375 6.390625 33.015625 6.390625 
Q 39.65625 6.390625 43.53125 10.953125 
Q 47.40625 15.53125 47.40625 23.390625 
Q 47.40625 31.296875 43.53125 35.828125 
Q 39.65625 40.375 33.015625 40.375 
z
M 52.59375 71.296875 
L 52.59375 62.3125 
Q 48.875 64.0625 45.09375 64.984375 
Q 41.3125 65.921875 37.59375 65.921875 
Q 27.828125 65.921875 22.671875 59.328125 
Q 17.53125 52.734375 16.796875 39.40625 
Q 19.671875 43.65625 24.015625 45.921875 
Q 28.375 48.1875 33.59375 48.1875 
Q 44.578125 48.1875 50.953125 41.515625 
Q 57.328125 34.859375 57.328125 23.390625 
Q 57.328125 12.15625 50.6875 5.359375 
Q 44.046875 -1.421875 33.015625 -1.421875 
Q 20.359375 -1.421875 13.671875 8.265625 
Q 6.984375 17.96875 6.984375 36.375 
Q 6.984375 53.65625 15.1875 63.9375 
Q 23.390625 74.21875 37.203125 74.21875 
Q 40.921875 74.21875 44.703125 73.484375 
Q 48.484375 72.75 52.59375 71.296875 
z
" id="DejaVuSans-36"/>
      </defs>
      <g transform="translate(167.166375 335.315625)rotate(-90)scale(0.1 -0.1)">
       <use xlink:href="#DejaVuSans-32"/>
       <use x="63.623047" xlink:href="#DejaVuSans-30"/>
       <use x="127.246094" xlink:href="#DejaVuSans-32"/>
       <use x="190.869141" xlink:href="#DejaVuSans-30"/>
       <use x="254.492188" xlink:href="#DejaVuSans-2d"/>
       <use x="290.576172" xlink:href="#DejaVuSans-30"/>
       <use x="354.199219" xlink:href="#DejaVuSans-33"/>
       <use x="417.822266" xlink:href="#DejaVuSans-2d"/>
       <use x="453.90625" xlink:href="#DejaVuSans-32"/>
       <use x="517.529297" xlink:href="#DejaVuSans-36"/>
      </g>
     </g>
    </g>
    <g id="xtick_9">
     <g id="line2d_9">
      <g>
       <use style="stroke:#000000;stroke-width:0.8;" x="179.112091" xlink:href="#ma41ada4694" y="270.2"/>
      </g>
     </g>
     <g id="text_9">
      <!-- 2020-03-27 -->
      <defs>
       <path d="M 8.203125 72.90625 
L 55.078125 72.90625 
L 55.078125 68.703125 
L 28.609375 0 
L 18.3125 0 
L 43.21875 64.59375 
L 8.203125 64.59375 
z
" id="DejaVuSans-37"/>
      </defs>
      <g transform="translate(181.871466 335.315625)rotate(-90)scale(0.1 -0.1)">
       <use xlink:href="#DejaVuSans-32"/>
       <use x="63.623047" xlink:href="#DejaVuSans-30"/>
       <use x="127.246094" xlink:href="#DejaVuSans-32"/>
       <use x="190.869141" xlink:href="#DejaVuSans-30"/>
       <use x="254.492188" xlink:href="#DejaVuSans-2d"/>
       <use x="290.576172" xlink:href="#DejaVuSans-30"/>
       <use x="354.199219" xlink:href="#DejaVuSans-33"/>
       <use x="417.822266" xlink:href="#DejaVuSans-2d"/>
       <use x="453.90625" xlink:href="#DejaVuSans-32"/>
       <use x="517.529297" xlink:href="#DejaVuSans-37"/>
      </g>
     </g>
    </g>
    <g id="xtick_10">
     <g id="line2d_10">
      <g>
       <use style="stroke:#000000;stroke-width:0.8;" x="193.817182" xlink:href="#ma41ada4694" y="270.2"/>
      </g>
     </g>
     <g id="text_10">
      <!-- 2020-03-28 -->
      <defs>
       <path d="M 31.78125 34.625 
Q 24.75 34.625 20.71875 30.859375 
Q 16.703125 27.09375 16.703125 20.515625 
Q 16.703125 13.921875 20.71875 10.15625 
Q 24.75 6.390625 31.78125 6.390625 
Q 38.8125 6.390625 42.859375 10.171875 
Q 46.921875 13.96875 46.921875 20.515625 
Q 46.921875 27.09375 42.890625 30.859375 
Q 38.875 34.625 31.78125 34.625 
z
M 21.921875 38.8125 
Q 15.578125 40.375 12.03125 44.71875 
Q 8.5 49.078125 8.5 55.328125 
Q 8.5 64.0625 14.71875 69.140625 
Q 20.953125 74.21875 31.78125 74.21875 
Q 42.671875 74.21875 48.875 69.140625 
Q 55.078125 64.0625 55.078125 55.328125 
Q 55.078125 49.078125 51.53125 44.71875 
Q 48 40.375 41.703125 38.8125 
Q 48.828125 37.15625 52.796875 32.3125 
Q 56.78125 27.484375 56.78125 20.515625 
Q 56.78125 9.90625 50.3125 4.234375 
Q 43.84375 -1.421875 31.78125 -1.421875 
Q 19.734375 -1.421875 13.25 4.234375 
Q 6.78125 9.90625 6.78125 20.515625 
Q 6.78125 27.484375 10.78125 32.3125 
Q 14.796875 37.15625 21.921875 38.8125 
z
M 18.3125 54.390625 
Q 18.3125 48.734375 21.84375 45.5625 
Q 25.390625 42.390625 31.78125 42.390625 
Q 38.140625 42.390625 41.71875 45.5625 
Q 45.3125 48.734375 45.3125 54.390625 
Q 45.3125 60.0625 41.71875 63.234375 
Q 38.140625 66.40625 31.78125 66.40625 
Q 25.390625 66.40625 21.84375 63.234375 
Q 18.3125 60.0625 18.3125 54.390625 
z
" id="DejaVuSans-38"/>
      </defs>
      <g transform="translate(196.576557 335.315625)rotate(-90)scale(0.1 -0.1)">
       <use xlink:href="#DejaVuSans-32"/>
       <use x="63.623047" xlink:href="#DejaVuSans-30"/>
       <use x="127.246094" xlink:href="#DejaVuSans-32"/>
       <use x="190.869141" xlink:href="#DejaVuSans-30"/>
       <use x="254.492188" xlink:href="#DejaVuSans-2d"/>
       <use x="290.576172" xlink:href="#DejaVuSans-30"/>
       <use x="354.199219" xlink:href="#DejaVuSans-33"/>
       <use x="417.822266" xlink:href="#DejaVuSans-2d"/>
       <use x="453.90625" xlink:href="#DejaVuSans-32"/>
       <use x="517.529297" xlink:href="#DejaVuSans-38"/>
      </g>
     </g>
    </g>
    <g id="xtick_11">
     <g id="line2d_11">
      <g>
       <use style="stroke:#000000;stroke-width:0.8;" x="208.522273" xlink:href="#ma41ada4694" y="270.2"/>
      </g>
     </g>
     <g id="text_11">
      <!-- 2020-03-29 -->
      <g transform="translate(211.281648 335.315625)rotate(-90)scale(0.1 -0.1)">
       <use xlink:href="#DejaVuSans-32"/>
       <use x="63.623047" xlink:href="#DejaVuSans-30"/>
       <use x="127.246094" xlink:href="#DejaVuSans-32"/>
       <use x="190.869141" xlink:href="#DejaVuSans-30"/>
       <use x="254.492188" xlink:href="#DejaVuSans-2d"/>
       <use x="290.576172" xlink:href="#DejaVuSans-30"/>
       <use x="354.199219" xlink:href="#DejaVuSans-33"/>
       <use x="417.822266" xlink:href="#DejaVuSans-2d"/>
       <use x="453.90625" xlink:href="#DejaVuSans-32"/>
       <use x="517.529297" xlink:href="#DejaVuSans-39"/>
      </g>
     </g>
    </g>
    <g id="xtick_12">
     <g id="line2d_12">
      <g>
       <use style="stroke:#000000;stroke-width:0.8;" x="223.227364" xlink:href="#ma41ada4694" y="270.2"/>
      </g>
     </g>
     <g id="text_12">
      <!-- 2020-03-30 -->
      <g transform="translate(225.986739 335.315625)rotate(-90)scale(0.1 -0.1)">
       <use xlink:href="#DejaVuSans-32"/>
       <use x="63.623047" xlink:href="#DejaVuSans-30"/>
       <use x="127.246094" xlink:href="#DejaVuSans-32"/>
       <use x="190.869141" xlink:href="#DejaVuSans-30"/>
       <use x="254.492188" xlink:href="#DejaVuSans-2d"/>
       <use x="290.576172" xlink:href="#DejaVuSans-30"/>
       <use x="354.199219" xlink:href="#DejaVuSans-33"/>
       <use x="417.822266" xlink:href="#DejaVuSans-2d"/>
       <use x="453.90625" xlink:href="#DejaVuSans-33"/>
       <use x="517.529297" xlink:href="#DejaVuSans-30"/>
      </g>
     </g>
    </g>
    <g id="xtick_13">
     <g id="line2d_13">
      <g>
       <use style="stroke:#000000;stroke-width:0.8;" x="237.932455" xlink:href="#ma41ada4694" y="270.2"/>
      </g>
     </g>
     <g id="text_13">
      <!-- 2020-03-31 -->
      <g transform="translate(240.69183 335.315625)rotate(-90)scale(0.1 -0.1)">
       <use xlink:href="#DejaVuSans-32"/>
       <use x="63.623047" xlink:href="#DejaVuSans-30"/>
       <use x="127.246094" xlink:href="#DejaVuSans-32"/>
       <use x="190.869141" xlink:href="#DejaVuSans-30"/>
       <use x="254.492188" xlink:href="#DejaVuSans-2d"/>
       <use x="290.576172" xlink:href="#DejaVuSans-30"/>
       <use x="354.199219" xlink:href="#DejaVuSans-33"/>
       <use x="417.822266" xlink:href="#DejaVuSans-2d"/>
       <use x="453.90625" xlink:href="#DejaVuSans-33"/>
       <use x="517.529297" xlink:href="#DejaVuSans-31"/>
      </g>
     </g>
    </g>
    <g id="xtick_14">
     <g id="line2d_14">
      <g>
       <use style="stroke:#000000;stroke-width:0.8;" x="252.637545" xlink:href="#ma41ada4694" y="270.2"/>
      </g>
     </g>
     <g id="text_14">
      <!-- 2020-04-01 -->
      <g transform="translate(255.39692 335.315625)rotate(-90)scale(0.1 -0.1)">
       <use xlink:href="#DejaVuSans-32"/>
       <use x="63.623047" xlink:href="#DejaVuSans-30"/>
       <use x="127.246094" xlink:href="#DejaVuSans-32"/>
       <use x="190.869141" xlink:href="#DejaVuSans-30"/>
       <use x="254.492188" xlink:href="#DejaVuSans-2d"/>
       <use x="290.576172" xlink:href="#DejaVuSans-30"/>
       <use x="354.199219" xlink:href="#DejaVuSans-34"/>
       <use x="417.822266" xlink:href="#DejaVuSans-2d"/>
       <use x="453.90625" xlink:href="#DejaVuSans-30"/>
       <use x="517.529297" xlink:href="#DejaVuSans-31"/>
      </g>
     </g>
    </g>
    <g id="xtick_15">
     <g id="line2d_15">
      <g>
       <use style="stroke:#000000;stroke-width:0.8;" x="267.342636" xlink:href="#ma41ada4694" y="270.2"/>
      </g>
     </g>
     <g id="text_15">
      <!-- 2020-04-02 -->
      <g transform="translate(270.102011 335.315625)rotate(-90)scale(0.1 -0.1)">
       <use xlink:href="#DejaVuSans-32"/>
       <use x="63.623047" xlink:href="#DejaVuSans-30"/>
       <use x="127.246094" xlink:href="#DejaVuSans-32"/>
       <use x="190.869141" xlink:href="#DejaVuSans-30"/>
       <use x="254.492188" xlink:href="#DejaVuSans-2d"/>
       <use x="290.576172" xlink:href="#DejaVuSans-30"/>
       <use x="354.199219" xlink:href="#DejaVuSans-34"/>
       <use x="417.822266" xlink:href="#DejaVuSans-2d"/>
       <use x="453.90625" xlink:href="#DejaVuSans-30"/>
       <use x="517.529297" xlink:href="#DejaVuSans-32"/>
      </g>
     </g>
    </g>
    <g id="xtick_16">
     <g id="line2d_16">
      <g>
       <use style="stroke:#000000;stroke-width:0.8;" x="282.047727" xlink:href="#ma41ada4694" y="270.2"/>
      </g>
     </g>
     <g id="text_16">
      <!-- 2020-04-03 -->
      <g transform="translate(284.807102 335.315625)rotate(-90)scale(0.1 -0.1)">
       <use xlink:href="#DejaVuSans-32"/>
       <use x="63.623047" xlink:href="#DejaVuSans-30"/>
       <use x="127.246094" xlink:href="#DejaVuSans-32"/>
       <use x="190.869141" xlink:href="#DejaVuSans-30"/>
       <use x="254.492188" xlink:href="#DejaVuSans-2d"/>
       <use x="290.576172" xlink:href="#DejaVuSans-30"/>
       <use x="354.199219" xlink:href="#DejaVuSans-34"/>
       <use x="417.822266" xlink:href="#DejaVuSans-2d"/>
       <use x="453.90625" xlink:href="#DejaVuSans-30"/>
       <use x="517.529297" xlink:href="#DejaVuSans-33"/>
      </g>
     </g>
    </g>
    <g id="xtick_17">
     <g id="line2d_17">
      <g>
       <use style="stroke:#000000;stroke-width:0.8;" x="296.752818" xlink:href="#ma41ada4694" y="270.2"/>
      </g>
     </g>
     <g id="text_17">
      <!-- 2020-04-04 -->
      <g transform="translate(299.512193 335.315625)rotate(-90)scale(0.1 -0.1)">
       <use xlink:href="#DejaVuSans-32"/>
       <use x="63.623047" xlink:href="#DejaVuSans-30"/>
       <use x="127.246094" xlink:href="#DejaVuSans-32"/>
       <use x="190.869141" xlink:href="#DejaVuSans-30"/>
       <use x="254.492188" xlink:href="#DejaVuSans-2d"/>
       <use x="290.576172" xlink:href="#DejaVuSans-30"/>
       <use x="354.199219" xlink:href="#DejaVuSans-34"/>
       <use x="417.822266" xlink:href="#DejaVuSans-2d"/>
       <use x="453.90625" xlink:href="#DejaVuSans-30"/>
       <use x="517.529297" xlink:href="#DejaVuSans-34"/>
      </g>
     </g>
    </g>
    <g id="xtick_18">
     <g id="line2d_18">
      <g>
       <use style="stroke:#000000;stroke-width:0.8;" x="311.457909" xlink:href="#ma41ada4694" y="270.2"/>
      </g>
     </g>
     <g id="text_18">
      <!-- 2020-04-05 -->
      <g transform="translate(314.217284 335.315625)rotate(-90)scale(0.1 -0.1)">
       <use xlink:href="#DejaVuSans-32"/>
       <use x="63.623047" xlink:href="#DejaVuSans-30"/>
       <use x="127.246094" xlink:href="#DejaVuSans-32"/>
       <use x="190.869141" xlink:href="#DejaVuSans-30"/>
       <use x="254.492188" xlink:href="#DejaVuSans-2d"/>
       <use x="290.576172" xlink:href="#DejaVuSans-30"/>
       <use x="354.199219" xlink:href="#DejaVuSans-34"/>
       <use x="417.822266" xlink:href="#DejaVuSans-2d"/>
       <use x="453.90625" xlink:href="#DejaVuSans-30"/>
       <use x="517.529297" xlink:href="#DejaVuSans-35"/>
      </g>
     </g>
    </g>
    <g id="xtick_19">
     <g id="line2d_19">
      <g>
       <use style="stroke:#000000;stroke-width:0.8;" x="326.163" xlink:href="#ma41ada4694" y="270.2"/>
      </g>
     </g>
     <g id="text_19">
      <!-- 2020-04-06 -->
      <g transform="translate(328.922375 335.315625)rotate(-90)scale(0.1 -0.1)">
       <use xlink:href="#DejaVuSans-32"/>
       <use x="63.623047" xlink:href="#DejaVuSans-30"/>
       <use x="127.246094" xlink:href="#DejaVuSans-32"/>
       <use x="190.869141" xlink:href="#DejaVuSans-30"/>
       <use x="254.492188" xlink:href="#DejaVuSans-2d"/>
       <use x="290.576172" xlink:href="#DejaVuSans-30"/>
       <use x="354.199219" xlink:href="#DejaVuSans-34"/>
       <use x="417.822266" xlink:href="#DejaVuSans-2d"/>
       <use x="453.90625" xlink:href="#DejaVuSans-30"/>
       <use x="517.529297" xlink:href="#DejaVuSans-36"/>
      </g>
     </g>
    </g>
    <g id="xtick_20">
     <g id="line2d_20">
      <g>
       <use style="stroke:#000000;stroke-width:0.8;" x="340.868091" xlink:href="#ma41ada4694" y="270.2"/>
      </g>
     </g>
     <g id="text_20">
      <!-- 2020-04-07 -->
      <g transform="translate(343.627466 335.315625)rotate(-90)scale(0.1 -0.1)">
       <use xlink:href="#DejaVuSans-32"/>
       <use x="63.623047" xlink:href="#DejaVuSans-30"/>
       <use x="127.246094" xlink:href="#DejaVuSans-32"/>
       <use x="190.869141" xlink:href="#DejaVuSans-30"/>
       <use x="254.492188" xlink:href="#DejaVuSans-2d"/>
       <use x="290.576172" xlink:href="#DejaVuSans-30"/>
       <use x="354.199219" xlink:href="#DejaVuSans-34"/>
       <use x="417.822266" xlink:href="#DejaVuSans-2d"/>
       <use x="453.90625" xlink:href="#DejaVuSans-30"/>
       <use x="517.529297" xlink:href="#DejaVuSans-37"/>
      </g>
     </g>
    </g>
    <g id="xtick_21">
     <g id="line2d_21">
      <g>
       <use style="stroke:#000000;stroke-width:0.8;" x="355.573182" xlink:href="#ma41ada4694" y="270.2"/>
      </g>
     </g>
     <g id="text_21">
      <!-- 2020-04-08 -->
      <g transform="translate(358.332557 335.315625)rotate(-90)scale(0.1 -0.1)">
       <use xlink:href="#DejaVuSans-32"/>
       <use x="63.623047" xlink:href="#DejaVuSans-30"/>
       <use x="127.246094" xlink:href="#DejaVuSans-32"/>
       <use x="190.869141" xlink:href="#DejaVuSans-30"/>
       <use x="254.492188" xlink:href="#DejaVuSans-2d"/>
       <use x="290.576172" xlink:href="#DejaVuSans-30"/>
       <use x="354.199219" xlink:href="#DejaVuSans-34"/>
       <use x="417.822266" xlink:href="#DejaVuSans-2d"/>
       <use x="453.90625" xlink:href="#DejaVuSans-30"/>
       <use x="517.529297" xlink:href="#DejaVuSans-38"/>
      </g>
     </g>
    </g>
    <g id="xtick_22">
     <g id="line2d_22">
      <g>
       <use style="stroke:#000000;stroke-width:0.8;" x="370.278273" xlink:href="#ma41ada4694" y="270.2"/>
      </g>
     </g>
     <g id="text_22">
      <!-- 2020-04-09 -->
      <g transform="translate(373.037648 335.315625)rotate(-90)scale(0.1 -0.1)">
       <use xlink:href="#DejaVuSans-32"/>
       <use x="63.623047" xlink:href="#DejaVuSans-30"/>
       <use x="127.246094" xlink:href="#DejaVuSans-32"/>
       <use x="190.869141" xlink:href="#DejaVuSans-30"/>
       <use x="254.492188" xlink:href="#DejaVuSans-2d"/>
       <use x="290.576172" xlink:href="#DejaVuSans-30"/>
       <use x="354.199219" xlink:href="#DejaVuSans-34"/>
       <use x="417.822266" xlink:href="#DejaVuSans-2d"/>
       <use x="453.90625" xlink:href="#DejaVuSans-30"/>
       <use x="517.529297" xlink:href="#DejaVuSans-39"/>
      </g>
     </g>
    </g>
    <g id="xtick_23">
     <g id="line2d_23">
      <g>
       <use style="stroke:#000000;stroke-width:0.8;" x="384.983364" xlink:href="#ma41ada4694" y="270.2"/>
      </g>
     </g>
     <g id="text_23">
      <!-- 2020-04-10 -->
      <g transform="translate(387.742739 335.315625)rotate(-90)scale(0.1 -0.1)">
       <use xlink:href="#DejaVuSans-32"/>
       <use x="63.623047" xlink:href="#DejaVuSans-30"/>
       <use x="127.246094" xlink:href="#DejaVuSans-32"/>
       <use x="190.869141" xlink:href="#DejaVuSans-30"/>
       <use x="254.492188" xlink:href="#DejaVuSans-2d"/>
       <use x="290.576172" xlink:href="#DejaVuSans-30"/>
       <use x="354.199219" xlink:href="#DejaVuSans-34"/>
       <use x="417.822266" xlink:href="#DejaVuSans-2d"/>
       <use x="453.90625" xlink:href="#DejaVuSans-31"/>
       <use x="517.529297" xlink:href="#DejaVuSans-30"/>
      </g>
     </g>
    </g>
    <g id="xtick_24">
     <g id="line2d_24">
      <g>
       <use style="stroke:#000000;stroke-width:0.8;" x="399.688455" xlink:href="#ma41ada4694" y="270.2"/>
      </g>
     </g>
     <g id="text_24">
      <!-- 2020-04-11 -->
      <g transform="translate(402.44783 335.315625)rotate(-90)scale(0.1 -0.1)">
       <use xlink:href="#DejaVuSans-32"/>
       <use x="63.623047" xlink:href="#DejaVuSans-30"/>
       <use x="127.246094" xlink:href="#DejaVuSans-32"/>
       <use x="190.869141" xlink:href="#DejaVuSans-30"/>
       <use x="254.492188" xlink:href="#DejaVuSans-2d"/>
       <use x="290.576172" xlink:href="#DejaVuSans-30"/>
       <use x="354.199219" xlink:href="#DejaVuSans-34"/>
       <use x="417.822266" xlink:href="#DejaVuSans-2d"/>
       <use x="453.90625" xlink:href="#DejaVuSans-31"/>
       <use x="517.529297" xlink:href="#DejaVuSans-31"/>
      </g>
     </g>
    </g>
    <g id="xtick_25">
     <g id="line2d_25">
      <g>
       <use style="stroke:#000000;stroke-width:0.8;" x="414.393545" xlink:href="#ma41ada4694" y="270.2"/>
      </g>
     </g>
     <g id="text_25">
      <!-- 2020-04-12 -->
      <g transform="translate(417.15292 335.315625)rotate(-90)scale(0.1 -0.1)">
       <use xlink:href="#DejaVuSans-32"/>
       <use x="63.623047" xlink:href="#DejaVuSans-30"/>
       <use x="127.246094" xlink:href="#DejaVuSans-32"/>
       <use x="190.869141" xlink:href="#DejaVuSans-30"/>
       <use x="254.492188" xlink:href="#DejaVuSans-2d"/>
       <use x="290.576172" xlink:href="#DejaVuSans-30"/>
       <use x="354.199219" xlink:href="#DejaVuSans-34"/>
       <use x="417.822266" xlink:href="#DejaVuSans-2d"/>
       <use x="453.90625" xlink:href="#DejaVuSans-31"/>
       <use x="517.529297" xlink:href="#DejaVuSans-32"/>
      </g>
     </g>
    </g>
    <g id="xtick_26">
     <g id="line2d_26">
      <g>
       <use style="stroke:#000000;stroke-width:0.8;" x="429.098636" xlink:href="#ma41ada4694" y="270.2"/>
      </g>
     </g>
     <g id="text_26">
      <!-- 2020-04-13 -->
      <g transform="translate(431.858011 335.315625)rotate(-90)scale(0.1 -0.1)">
       <use xlink:href="#DejaVuSans-32"/>
       <use x="63.623047" xlink:href="#DejaVuSans-30"/>
       <use x="127.246094" xlink:href="#DejaVuSans-32"/>
       <use x="190.869141" xlink:href="#DejaVuSans-30"/>
       <use x="254.492188" xlink:href="#DejaVuSans-2d"/>
       <use x="290.576172" xlink:href="#DejaVuSans-30"/>
       <use x="354.199219" xlink:href="#DejaVuSans-34"/>
       <use x="417.822266" xlink:href="#DejaVuSans-2d"/>
       <use x="453.90625" xlink:href="#DejaVuSans-31"/>
       <use x="517.529297" xlink:href="#DejaVuSans-33"/>
      </g>
     </g>
    </g>
   </g>
   <g id="matplotlib.axis_2">
    <g id="ytick_1">
     <g id="line2d_27">
      <defs>
       <path d="M 0 0 
L -3.5 0 
" id="m8a516ade4c" style="stroke:#000000;stroke-width:0.8;"/>
      </defs>
      <g>
       <use style="stroke:#000000;stroke-width:0.8;" x="43.09" xlink:href="#m8a516ade4c" y="270.2"/>
      </g>
     </g>
     <g id="text_27">
      <!-- 0 -->
      <g transform="translate(29.7275 273.999219)scale(0.1 -0.1)">
       <use xlink:href="#DejaVuSans-30"/>
      </g>
     </g>
    </g>
    <g id="ytick_2">
     <g id="line2d_28">
      <g>
       <use style="stroke:#000000;stroke-width:0.8;" x="43.09" xlink:href="#m8a516ade4c" y="239.807773"/>
      </g>
     </g>
     <g id="text_28">
      <!-- 1000 -->
      <g transform="translate(10.64 243.606992)scale(0.1 -0.1)">
       <use xlink:href="#DejaVuSans-31"/>
       <use x="63.623047" xlink:href="#DejaVuSans-30"/>
       <use x="127.246094" xlink:href="#DejaVuSans-30"/>
       <use x="190.869141" xlink:href="#DejaVuSans-30"/>
      </g>
     </g>
    </g>
    <g id="ytick_3">
     <g id="line2d_29">
      <g>
       <use style="stroke:#000000;stroke-width:0.8;" x="43.09" xlink:href="#m8a516ade4c" y="209.415546"/>
      </g>
     </g>
     <g id="text_29">
      <!-- 2000 -->
      <g transform="translate(10.64 213.214765)scale(0.1 -0.1)">
       <use xlink:href="#DejaVuSans-32"/>
       <use x="63.623047" xlink:href="#DejaVuSans-30"/>
       <use x="127.246094" xlink:href="#DejaVuSans-30"/>
       <use x="190.869141" xlink:href="#DejaVuSans-30"/>
      </g>
     </g>
    </g>
    <g id="ytick_4">
     <g id="line2d_30">
      <g>
       <use style="stroke:#000000;stroke-width:0.8;" x="43.09" xlink:href="#m8a516ade4c" y="179.023319"/>
      </g>
     </g>
     <g id="text_30">
      <!-- 3000 -->
      <g transform="translate(10.64 182.822538)scale(0.1 -0.1)">
       <use xlink:href="#DejaVuSans-33"/>
       <use x="63.623047" xlink:href="#DejaVuSans-30"/>
       <use x="127.246094" xlink:href="#DejaVuSans-30"/>
       <use x="190.869141" xlink:href="#DejaVuSans-30"/>
      </g>
     </g>
    </g>
    <g id="ytick_5">
     <g id="line2d_31">
      <g>
       <use style="stroke:#000000;stroke-width:0.8;" x="43.09" xlink:href="#m8a516ade4c" y="148.631093"/>
      </g>
     </g>
     <g id="text_31">
      <!-- 4000 -->
      <g transform="translate(10.64 152.430311)scale(0.1 -0.1)">
       <use xlink:href="#DejaVuSans-34"/>
       <use x="63.623047" xlink:href="#DejaVuSans-30"/>
       <use x="127.246094" xlink:href="#DejaVuSans-30"/>
       <use x="190.869141" xlink:href="#DejaVuSans-30"/>
      </g>
     </g>
    </g>
    <g id="ytick_6">
     <g id="line2d_32">
      <g>
       <use style="stroke:#000000;stroke-width:0.8;" x="43.09" xlink:href="#m8a516ade4c" y="118.238866"/>
      </g>
     </g>
     <g id="text_32">
      <!-- 5000 -->
      <g transform="translate(10.64 122.038084)scale(0.1 -0.1)">
       <use xlink:href="#DejaVuSans-35"/>
       <use x="63.623047" xlink:href="#DejaVuSans-30"/>
       <use x="127.246094" xlink:href="#DejaVuSans-30"/>
       <use x="190.869141" xlink:href="#DejaVuSans-30"/>
      </g>
     </g>
    </g>
    <g id="ytick_7">
     <g id="line2d_33">
      <g>
       <use style="stroke:#000000;stroke-width:0.8;" x="43.09" xlink:href="#m8a516ade4c" y="87.846639"/>
      </g>
     </g>
     <g id="text_33">
      <!-- 6000 -->
      <g transform="translate(10.64 91.645858)scale(0.1 -0.1)">
       <use xlink:href="#DejaVuSans-36"/>
       <use x="63.623047" xlink:href="#DejaVuSans-30"/>
       <use x="127.246094" xlink:href="#DejaVuSans-30"/>
       <use x="190.869141" xlink:href="#DejaVuSans-30"/>
      </g>
     </g>
    </g>
    <g id="ytick_8">
     <g id="line2d_34">
      <g>
       <use style="stroke:#000000;stroke-width:0.8;" x="43.09" xlink:href="#m8a516ade4c" y="57.454412"/>
      </g>
     </g>
     <g id="text_34">
      <!-- 7000 -->
      <g transform="translate(10.64 61.253631)scale(0.1 -0.1)">
       <use xlink:href="#DejaVuSans-37"/>
       <use x="63.623047" xlink:href="#DejaVuSans-30"/>
       <use x="127.246094" xlink:href="#DejaVuSans-30"/>
       <use x="190.869141" xlink:href="#DejaVuSans-30"/>
      </g>
     </g>
    </g>
    <g id="ytick_9">
     <g id="line2d_35">
      <g>
       <use style="stroke:#000000;stroke-width:0.8;" x="43.09" xlink:href="#m8a516ade4c" y="27.062185"/>
      </g>
     </g>
     <g id="text_35">
      <!-- 8000 -->
      <g transform="translate(10.64 30.861404)scale(0.1 -0.1)">
       <use xlink:href="#DejaVuSans-38"/>
       <use x="63.623047" xlink:href="#DejaVuSans-30"/>
       <use x="127.246094" xlink:href="#DejaVuSans-30"/>
       <use x="190.869141" xlink:href="#DejaVuSans-30"/>
      </g>
     </g>
    </g>
   </g>
   <g id="line2d_36">
    <path clip-path="url(#p8667715bae)" d="M 61.471364 266.583325 
L 76.176455 265.063714 
L 90.881545 262.69312 
L 105.586636 259.532328 
L 120.291727 256.766636 
L 134.996818 253.058784 
L 149.701909 248.803872 
L 164.407 243.849939 
L 179.112091 235.644038 
L 193.817182 227.468529 
L 208.522273 219.961649 
L 223.227364 211.451825 
L 237.932455 203.367493 
L 252.637545 192.790998 
L 267.342636 182.001758 
L 282.047727 169.540945 
L 296.752818 156.563464 
L 311.457909 147.324227 
L 326.163 134.95459 
L 340.868091 124.864371 
L 355.573182 113.740816 
L 370.278273 102.678046 
L 384.983364 91.554491 
L 399.688455 80.248582 
L 414.393545 69.489734 
L 429.098636 58.214218 
" style="fill:none;stroke:#ff0000;stroke-linecap:square;stroke-width:2;"/>
    <defs>
     <path d="M 0 3 
C 0.795609 3 1.55874 2.683901 2.12132 2.12132 
C 2.683901 1.55874 3 0.795609 3 0 
C 3 -0.795609 2.683901 -1.55874 2.12132 -2.12132 
C 1.55874 -2.683901 0.795609 -3 0 -3 
C -0.795609 -3 -1.55874 -2.683901 -2.12132 -2.12132 
C -2.683901 -1.55874 -3 -0.795609 -3 0 
C -3 0.795609 -2.683901 1.55874 -2.12132 2.12132 
C -1.55874 2.683901 -0.795609 3 0 3 
z
" id="mebf5f02687" style="stroke:#ff0000;"/>
    </defs>
    <g clip-path="url(#p8667715bae)">
     <use style="fill:#ff0000;stroke:#ff0000;" x="61.471364" xlink:href="#mebf5f02687" y="266.583325"/>
     <use style="fill:#ff0000;stroke:#ff0000;" x="76.176455" xlink:href="#mebf5f02687" y="265.063714"/>
     <use style="fill:#ff0000;stroke:#ff0000;" x="90.881545" xlink:href="#mebf5f02687" y="262.69312"/>
     <use style="fill:#ff0000;stroke:#ff0000;" x="105.586636" xlink:href="#mebf5f02687" y="259.532328"/>
     <use style="fill:#ff0000;stroke:#ff0000;" x="120.291727" xlink:href="#mebf5f02687" y="256.766636"/>
     <use style="fill:#ff0000;stroke:#ff0000;" x="134.996818" xlink:href="#mebf5f02687" y="253.058784"/>
     <use style="fill:#ff0000;stroke:#ff0000;" x="149.701909" xlink:href="#mebf5f02687" y="248.803872"/>
     <use style="fill:#ff0000;stroke:#ff0000;" x="164.407" xlink:href="#mebf5f02687" y="243.849939"/>
     <use style="fill:#ff0000;stroke:#ff0000;" x="179.112091" xlink:href="#mebf5f02687" y="235.644038"/>
     <use style="fill:#ff0000;stroke:#ff0000;" x="193.817182" xlink:href="#mebf5f02687" y="227.468529"/>
     <use style="fill:#ff0000;stroke:#ff0000;" x="208.522273" xlink:href="#mebf5f02687" y="219.961649"/>
     <use style="fill:#ff0000;stroke:#ff0000;" x="223.227364" xlink:href="#mebf5f02687" y="211.451825"/>
     <use style="fill:#ff0000;stroke:#ff0000;" x="237.932455" xlink:href="#mebf5f02687" y="203.367493"/>
     <use style="fill:#ff0000;stroke:#ff0000;" x="252.637545" xlink:href="#mebf5f02687" y="192.790998"/>
     <use style="fill:#ff0000;stroke:#ff0000;" x="267.342636" xlink:href="#mebf5f02687" y="182.001758"/>
     <use style="fill:#ff0000;stroke:#ff0000;" x="282.047727" xlink:href="#mebf5f02687" y="169.540945"/>
     <use style="fill:#ff0000;stroke:#ff0000;" x="296.752818" xlink:href="#mebf5f02687" y="156.563464"/>
     <use style="fill:#ff0000;stroke:#ff0000;" x="311.457909" xlink:href="#mebf5f02687" y="147.324227"/>
     <use style="fill:#ff0000;stroke:#ff0000;" x="326.163" xlink:href="#mebf5f02687" y="134.95459"/>
     <use style="fill:#ff0000;stroke:#ff0000;" x="340.868091" xlink:href="#mebf5f02687" y="124.864371"/>
     <use style="fill:#ff0000;stroke:#ff0000;" x="355.573182" xlink:href="#mebf5f02687" y="113.740816"/>
     <use style="fill:#ff0000;stroke:#ff0000;" x="370.278273" xlink:href="#mebf5f02687" y="102.678046"/>
     <use style="fill:#ff0000;stroke:#ff0000;" x="384.983364" xlink:href="#mebf5f02687" y="91.554491"/>
     <use style="fill:#ff0000;stroke:#ff0000;" x="399.688455" xlink:href="#mebf5f02687" y="80.248582"/>
     <use style="fill:#ff0000;stroke:#ff0000;" x="414.393545" xlink:href="#mebf5f02687" y="69.489734"/>
     <use style="fill:#ff0000;stroke:#ff0000;" x="429.098636" xlink:href="#mebf5f02687" y="58.214218"/>
    </g>
   </g>
   <g id="line2d_37">
    <path clip-path="url(#p8667715bae)" d="M 76.176455 268.680389 
L 90.881545 267.829406 
L 105.586636 267.039208 
L 120.291727 267.434307 
L 134.996818 266.492148 
L 149.701909 265.945088 
L 164.407 265.246067 
L 179.112091 261.994099 
L 193.817182 262.024491 
L 208.522273 262.69312 
L 223.227364 261.690176 
L 237.932455 262.115668 
L 252.637545 259.623505 
L 267.342636 259.410759 
L 282.047727 257.739187 
L 296.752818 257.222519 
L 311.457909 260.960763 
L 326.163 257.830364 
L 340.868091 260.109781 
L 355.573182 259.076445 
L 370.278273 259.137229 
L 384.983364 259.076445 
L 399.688455 258.894092 
L 414.393545 259.441152 
L 429.098636 258.924484 
" style="fill:none;stroke:#ffa500;stroke-linecap:square;stroke-width:2;"/>
    <defs>
     <path d="M 0 3 
C 0.795609 3 1.55874 2.683901 2.12132 2.12132 
C 2.683901 1.55874 3 0.795609 3 0 
C 3 -0.795609 2.683901 -1.55874 2.12132 -2.12132 
C 1.55874 -2.683901 0.795609 -3 0 -3 
C -0.795609 -3 -1.55874 -2.683901 -2.12132 -2.12132 
C -2.683901 -1.55874 -3 -0.795609 -3 0 
C -3 0.795609 -2.683901 1.55874 -2.12132 2.12132 
C -1.55874 2.683901 -0.795609 3 0 3 
z
" id="mfebd5eba8f" style="stroke:#ffa500;"/>
    </defs>
    <g clip-path="url(#p8667715bae)">
     <use style="fill:#ffa500;stroke:#ffa500;" x="76.176455" xlink:href="#mfebd5eba8f" y="268.680389"/>
     <use style="fill:#ffa500;stroke:#ffa500;" x="90.881545" xlink:href="#mfebd5eba8f" y="267.829406"/>
     <use style="fill:#ffa500;stroke:#ffa500;" x="105.586636" xlink:href="#mfebd5eba8f" y="267.039208"/>
     <use style="fill:#ffa500;stroke:#ffa500;" x="120.291727" xlink:href="#mfebd5eba8f" y="267.434307"/>
     <use style="fill:#ffa500;stroke:#ffa500;" x="134.996818" xlink:href="#mfebd5eba8f" y="266.492148"/>
     <use style="fill:#ffa500;stroke:#ffa500;" x="149.701909" xlink:href="#mfebd5eba8f" y="265.945088"/>
     <use style="fill:#ffa500;stroke:#ffa500;" x="164.407" xlink:href="#mfebd5eba8f" y="265.246067"/>
     <use style="fill:#ffa500;stroke:#ffa500;" x="179.112091" xlink:href="#mfebd5eba8f" y="261.994099"/>
     <use style="fill:#ffa500;stroke:#ffa500;" x="193.817182" xlink:href="#mfebd5eba8f" y="262.024491"/>
     <use style="fill:#ffa500;stroke:#ffa500;" x="208.522273" xlink:href="#mfebd5eba8f" y="262.69312"/>
     <use style="fill:#ffa500;stroke:#ffa500;" x="223.227364" xlink:href="#mfebd5eba8f" y="261.690176"/>
     <use style="fill:#ffa500;stroke:#ffa500;" x="237.932455" xlink:href="#mfebd5eba8f" y="262.115668"/>
     <use style="fill:#ffa500;stroke:#ffa500;" x="252.637545" xlink:href="#mfebd5eba8f" y="259.623505"/>
     <use style="fill:#ffa500;stroke:#ffa500;" x="267.342636" xlink:href="#mfebd5eba8f" y="259.410759"/>
     <use style="fill:#ffa500;stroke:#ffa500;" x="282.047727" xlink:href="#mfebd5eba8f" y="257.739187"/>
     <use style="fill:#ffa500;stroke:#ffa500;" x="296.752818" xlink:href="#mfebd5eba8f" y="257.222519"/>
     <use style="fill:#ffa500;stroke:#ffa500;" x="311.457909" xlink:href="#mfebd5eba8f" y="260.960763"/>
     <use style="fill:#ffa500;stroke:#ffa500;" x="326.163" xlink:href="#mfebd5eba8f" y="257.830364"/>
     <use style="fill:#ffa500;stroke:#ffa500;" x="340.868091" xlink:href="#mfebd5eba8f" y="260.109781"/>
     <use style="fill:#ffa500;stroke:#ffa500;" x="355.573182" xlink:href="#mfebd5eba8f" y="259.076445"/>
     <use style="fill:#ffa500;stroke:#ffa500;" x="370.278273" xlink:href="#mfebd5eba8f" y="259.137229"/>
     <use style="fill:#ffa500;stroke:#ffa500;" x="384.983364" xlink:href="#mfebd5eba8f" y="259.076445"/>
     <use style="fill:#ffa500;stroke:#ffa500;" x="399.688455" xlink:href="#mfebd5eba8f" y="258.894092"/>
     <use style="fill:#ffa500;stroke:#ffa500;" x="414.393545" xlink:href="#mfebd5eba8f" y="259.441152"/>
     <use style="fill:#ffa500;stroke:#ffa500;" x="429.098636" xlink:href="#mfebd5eba8f" y="258.924484"/>
    </g>
   </g>
   <g id="patch_3">
    <path d="M 43.09 270.2 
L 43.09 25.44 
" style="fill:none;stroke:#000000;stroke-linecap:square;stroke-linejoin:miter;stroke-width:0.8;"/>
   </g>
   <g id="patch_4">
    <path d="M 447.48 270.2 
L 447.48 25.44 
" style="fill:none;stroke:#000000;stroke-linecap:square;stroke-linejoin:miter;stroke-width:0.8;"/>
   </g>
   <g id="patch_5">
    <path d="M 43.09 270.2 
L 447.48 270.2 
" style="fill:none;stroke:#000000;stroke-linecap:square;stroke-linejoin:miter;stroke-width:0.8;"/>
   </g>
   <g id="patch_6">
    <path d="M 43.09 25.44 
L 447.48 25.44 
" style="fill:none;stroke:#000000;stroke-linecap:square;stroke-linejoin:miter;stroke-width:0.8;"/>
   </g>
   <g id="text_36">
    <!-- 119 -->
    <g transform="translate(51.927614 264.503638)scale(0.1 -0.1)">
     <use xlink:href="#DejaVuSans-31"/>
     <use x="63.623047" xlink:href="#DejaVuSans-31"/>
     <use x="127.246094" xlink:href="#DejaVuSans-39"/>
    </g>
   </g>
   <g id="text_37">
    <!-- 169 -->
    <g transform="translate(66.632705 262.984026)scale(0.1 -0.1)">
     <use xlink:href="#DejaVuSans-31"/>
     <use x="63.623047" xlink:href="#DejaVuSans-36"/>
     <use x="127.246094" xlink:href="#DejaVuSans-39"/>
    </g>
   </g>
   <g id="text_38">
    <!-- 247 -->
    <g transform="translate(81.337795 260.613432)scale(0.1 -0.1)">
     <use xlink:href="#DejaVuSans-32"/>
     <use x="63.623047" xlink:href="#DejaVuSans-34"/>
     <use x="127.246094" xlink:href="#DejaVuSans-37"/>
    </g>
   </g>
   <g id="text_39">
    <!-- 351 -->
    <g transform="translate(96.042886 257.452641)scale(0.1 -0.1)">
     <use xlink:href="#DejaVuSans-33"/>
     <use x="63.623047" xlink:href="#DejaVuSans-35"/>
     <use x="127.246094" xlink:href="#DejaVuSans-31"/>
    </g>
   </g>
   <g id="text_40">
    <!-- 442 -->
    <g transform="translate(110.747977 254.686948)scale(0.1 -0.1)">
     <use xlink:href="#DejaVuSans-34"/>
     <use x="63.623047" xlink:href="#DejaVuSans-34"/>
     <use x="127.246094" xlink:href="#DejaVuSans-32"/>
    </g>
   </g>
   <g id="text_41">
    <!-- 564 -->
    <g transform="translate(125.453068 250.979097)scale(0.1 -0.1)">
     <use xlink:href="#DejaVuSans-35"/>
     <use x="63.623047" xlink:href="#DejaVuSans-36"/>
     <use x="127.246094" xlink:href="#DejaVuSans-34"/>
    </g>
   </g>
   <g id="text_42">
    <!-- 704 -->
    <g transform="translate(140.158159 246.724185)scale(0.1 -0.1)">
     <use xlink:href="#DejaVuSans-37"/>
     <use x="63.623047" xlink:href="#DejaVuSans-30"/>
     <use x="127.246094" xlink:href="#DejaVuSans-34"/>
    </g>
   </g>
   <g id="text_43">
    <!-- 867 -->
    <g transform="translate(154.86325 241.770252)scale(0.1 -0.1)">
     <use xlink:href="#DejaVuSans-38"/>
     <use x="63.623047" xlink:href="#DejaVuSans-36"/>
     <use x="127.246094" xlink:href="#DejaVuSans-37"/>
    </g>
   </g>
   <g id="text_44">
    <!-- 1137 -->
    <g transform="translate(166.387091 233.564351)scale(0.1 -0.1)">
     <use xlink:href="#DejaVuSans-31"/>
     <use x="63.623047" xlink:href="#DejaVuSans-31"/>
     <use x="127.246094" xlink:href="#DejaVuSans-33"/>
     <use x="190.869141" xlink:href="#DejaVuSans-37"/>
    </g>
   </g>
   <g id="text_45">
    <!-- 1406 -->
    <g transform="translate(181.092182 225.388842)scale(0.1 -0.1)">
     <use xlink:href="#DejaVuSans-31"/>
     <use x="63.623047" xlink:href="#DejaVuSans-34"/>
     <use x="127.246094" xlink:href="#DejaVuSans-30"/>
     <use x="190.869141" xlink:href="#DejaVuSans-36"/>
    </g>
   </g>
   <g id="text_46">
    <!-- 1653 -->
    <g transform="translate(195.797273 217.881961)scale(0.1 -0.1)">
     <use xlink:href="#DejaVuSans-31"/>
     <use x="63.623047" xlink:href="#DejaVuSans-36"/>
     <use x="127.246094" xlink:href="#DejaVuSans-35"/>
     <use x="190.869141" xlink:href="#DejaVuSans-33"/>
    </g>
   </g>
   <g id="text_47">
    <!-- 1933 -->
    <g transform="translate(210.502364 209.372138)scale(0.1 -0.1)">
     <use xlink:href="#DejaVuSans-31"/>
     <use x="63.623047" xlink:href="#DejaVuSans-39"/>
     <use x="127.246094" xlink:href="#DejaVuSans-33"/>
     <use x="190.869141" xlink:href="#DejaVuSans-33"/>
    </g>
   </g>
   <g id="text_48">
    <!-- 2199 -->
    <g transform="translate(225.207455 201.287806)scale(0.1 -0.1)">
     <use xlink:href="#DejaVuSans-32"/>
     <use x="63.623047" xlink:href="#DejaVuSans-31"/>
     <use x="127.246094" xlink:href="#DejaVuSans-39"/>
     <use x="190.869141" xlink:href="#DejaVuSans-39"/>
    </g>
   </g>
   <g id="text_49">
    <!-- 2547 -->
    <g transform="translate(239.912545 190.711311)scale(0.1 -0.1)">
     <use xlink:href="#DejaVuSans-32"/>
     <use x="63.623047" xlink:href="#DejaVuSans-35"/>
     <use x="127.246094" xlink:href="#DejaVuSans-34"/>
     <use x="190.869141" xlink:href="#DejaVuSans-37"/>
    </g>
   </g>
   <g id="text_50">
    <!-- 2902 -->
    <g transform="translate(254.617636 179.92207)scale(0.1 -0.1)">
     <use xlink:href="#DejaVuSans-32"/>
     <use x="63.623047" xlink:href="#DejaVuSans-39"/>
     <use x="127.246094" xlink:href="#DejaVuSans-30"/>
     <use x="190.869141" xlink:href="#DejaVuSans-32"/>
    </g>
   </g>
   <g id="text_51">
    <!-- 3312 -->
    <g transform="translate(269.322727 167.461257)scale(0.1 -0.1)">
     <use xlink:href="#DejaVuSans-33"/>
     <use x="63.623047" xlink:href="#DejaVuSans-33"/>
     <use x="127.246094" xlink:href="#DejaVuSans-31"/>
     <use x="190.869141" xlink:href="#DejaVuSans-32"/>
    </g>
   </g>
   <g id="text_52">
    <!-- 3739 -->
    <g transform="translate(284.027818 154.483776)scale(0.1 -0.1)">
     <use xlink:href="#DejaVuSans-33"/>
     <use x="63.623047" xlink:href="#DejaVuSans-37"/>
     <use x="127.246094" xlink:href="#DejaVuSans-33"/>
     <use x="190.869141" xlink:href="#DejaVuSans-39"/>
    </g>
   </g>
   <g id="text_53">
    <!-- 4043 -->
    <g transform="translate(298.732909 145.244539)scale(0.1 -0.1)">
     <use xlink:href="#DejaVuSans-34"/>
     <use x="63.623047" xlink:href="#DejaVuSans-30"/>
     <use x="127.246094" xlink:href="#DejaVuSans-34"/>
     <use x="190.869141" xlink:href="#DejaVuSans-33"/>
    </g>
   </g>
   <g id="text_54">
    <!-- 4450 -->
    <g transform="translate(313.438 132.874903)scale(0.1 -0.1)">
     <use xlink:href="#DejaVuSans-34"/>
     <use x="63.623047" xlink:href="#DejaVuSans-34"/>
     <use x="127.246094" xlink:href="#DejaVuSans-35"/>
     <use x="190.869141" xlink:href="#DejaVuSans-30"/>
    </g>
   </g>
   <g id="text_55">
    <!-- 4782 -->
    <g transform="translate(328.143091 122.784684)scale(0.1 -0.1)">
     <use xlink:href="#DejaVuSans-34"/>
     <use x="63.623047" xlink:href="#DejaVuSans-37"/>
     <use x="127.246094" xlink:href="#DejaVuSans-38"/>
     <use x="190.869141" xlink:href="#DejaVuSans-32"/>
    </g>
   </g>
   <g id="text_56">
    <!-- 5148 -->
    <g transform="translate(342.848182 111.661129)scale(0.1 -0.1)">
     <use xlink:href="#DejaVuSans-35"/>
     <use x="63.623047" xlink:href="#DejaVuSans-31"/>
     <use x="127.246094" xlink:href="#DejaVuSans-34"/>
     <use x="190.869141" xlink:href="#DejaVuSans-38"/>
    </g>
   </g>
   <g id="text_57">
    <!-- 5512 -->
    <g transform="translate(357.553273 100.598358)scale(0.1 -0.1)">
     <use xlink:href="#DejaVuSans-35"/>
     <use x="63.623047" xlink:href="#DejaVuSans-35"/>
     <use x="127.246094" xlink:href="#DejaVuSans-31"/>
     <use x="190.869141" xlink:href="#DejaVuSans-32"/>
    </g>
   </g>
   <g id="text_58">
    <!-- 5878 -->
    <g transform="translate(372.258364 89.474803)scale(0.1 -0.1)">
     <use xlink:href="#DejaVuSans-35"/>
     <use x="63.623047" xlink:href="#DejaVuSans-38"/>
     <use x="127.246094" xlink:href="#DejaVuSans-37"/>
     <use x="190.869141" xlink:href="#DejaVuSans-38"/>
    </g>
   </g>
   <g id="text_59">
    <!-- 6250 -->
    <g transform="translate(386.963455 78.168895)scale(0.1 -0.1)">
     <use xlink:href="#DejaVuSans-36"/>
     <use x="63.623047" xlink:href="#DejaVuSans-32"/>
     <use x="127.246094" xlink:href="#DejaVuSans-35"/>
     <use x="190.869141" xlink:href="#DejaVuSans-30"/>
    </g>
   </g>
   <g id="text_60">
    <!-- 6604 -->
    <g transform="translate(401.668545 67.410046)scale(0.1 -0.1)">
     <use xlink:href="#DejaVuSans-36"/>
     <use x="63.623047" xlink:href="#DejaVuSans-36"/>
     <use x="127.246094" xlink:href="#DejaVuSans-30"/>
     <use x="190.869141" xlink:href="#DejaVuSans-34"/>
    </g>
   </g>
   <g id="text_61">
    <!-- 6975 -->
    <g transform="translate(416.373636 56.13453)scale(0.1 -0.1)">
     <use xlink:href="#DejaVuSans-36"/>
     <use x="63.623047" xlink:href="#DejaVuSans-39"/>
     <use x="127.246094" xlink:href="#DejaVuSans-37"/>
     <use x="190.869141" xlink:href="#DejaVuSans-35"/>
    </g>
   </g>
   <g id="text_62">
    <!-- 50 -->
    <g transform="translate(69.813955 266.600701)scale(0.1 -0.1)">
     <use xlink:href="#DejaVuSans-35"/>
     <use x="63.623047" xlink:href="#DejaVuSans-30"/>
    </g>
   </g>
   <g id="text_63">
    <!-- 78 -->
    <g transform="translate(84.519045 265.749719)scale(0.1 -0.1)">
     <use xlink:href="#DejaVuSans-37"/>
     <use x="63.623047" xlink:href="#DejaVuSans-38"/>
    </g>
   </g>
   <g id="text_64">
    <!-- 104 -->
    <g transform="translate(96.042886 264.959521)scale(0.1 -0.1)">
     <use xlink:href="#DejaVuSans-31"/>
     <use x="63.623047" xlink:href="#DejaVuSans-30"/>
     <use x="127.246094" xlink:href="#DejaVuSans-34"/>
    </g>
   </g>
   <g id="text_65">
    <!-- 91 -->
    <g transform="translate(113.929227 265.35462)scale(0.1 -0.1)">
     <use xlink:href="#DejaVuSans-39"/>
     <use x="63.623047" xlink:href="#DejaVuSans-31"/>
    </g>
   </g>
   <g id="text_66">
    <!-- 122 -->
    <g transform="translate(125.453068 264.412461)scale(0.1 -0.1)">
     <use xlink:href="#DejaVuSans-31"/>
     <use x="63.623047" xlink:href="#DejaVuSans-32"/>
     <use x="127.246094" xlink:href="#DejaVuSans-32"/>
    </g>
   </g>
   <g id="text_67">
    <!-- 140 -->
    <g transform="translate(140.158159 263.865401)scale(0.1 -0.1)">
     <use xlink:href="#DejaVuSans-31"/>
     <use x="63.623047" xlink:href="#DejaVuSans-34"/>
     <use x="127.246094" xlink:href="#DejaVuSans-30"/>
    </g>
   </g>
   <g id="text_68">
    <!-- 163 -->
    <g transform="translate(154.86325 263.16638)scale(0.1 -0.1)">
     <use xlink:href="#DejaVuSans-31"/>
     <use x="63.623047" xlink:href="#DejaVuSans-36"/>
     <use x="127.246094" xlink:href="#DejaVuSans-33"/>
    </g>
   </g>
   <g id="text_69">
    <!-- 270 -->
    <g transform="translate(169.568341 259.914411)scale(0.1 -0.1)">
     <use xlink:href="#DejaVuSans-32"/>
     <use x="63.623047" xlink:href="#DejaVuSans-37"/>
     <use x="127.246094" xlink:href="#DejaVuSans-30"/>
    </g>
   </g>
   <g id="text_70">
    <!-- 269 -->
    <g transform="translate(184.273432 259.944803)scale(0.1 -0.1)">
     <use xlink:href="#DejaVuSans-32"/>
     <use x="63.623047" xlink:href="#DejaVuSans-36"/>
     <use x="127.246094" xlink:href="#DejaVuSans-39"/>
    </g>
   </g>
   <g id="text_71">
    <!-- 247 -->
    <g transform="translate(198.978523 260.613432)scale(0.1 -0.1)">
     <use xlink:href="#DejaVuSans-32"/>
     <use x="63.623047" xlink:href="#DejaVuSans-34"/>
     <use x="127.246094" xlink:href="#DejaVuSans-37"/>
    </g>
   </g>
   <g id="text_72">
    <!-- 280 -->
    <g transform="translate(213.683614 259.610489)scale(0.1 -0.1)">
     <use xlink:href="#DejaVuSans-32"/>
     <use x="63.623047" xlink:href="#DejaVuSans-38"/>
     <use x="127.246094" xlink:href="#DejaVuSans-30"/>
    </g>
   </g>
   <g id="text_73">
    <!-- 266 -->
    <g transform="translate(228.388705 260.03598)scale(0.1 -0.1)">
     <use xlink:href="#DejaVuSans-32"/>
     <use x="63.623047" xlink:href="#DejaVuSans-36"/>
     <use x="127.246094" xlink:href="#DejaVuSans-36"/>
    </g>
   </g>
   <g id="text_74">
    <!-- 348 -->
    <g transform="translate(243.093795 257.543818)scale(0.1 -0.1)">
     <use xlink:href="#DejaVuSans-33"/>
     <use x="63.623047" xlink:href="#DejaVuSans-34"/>
     <use x="127.246094" xlink:href="#DejaVuSans-38"/>
    </g>
   </g>
   <g id="text_75">
    <!-- 355 -->
    <g transform="translate(257.798886 257.331072)scale(0.1 -0.1)">
     <use xlink:href="#DejaVuSans-33"/>
     <use x="63.623047" xlink:href="#DejaVuSans-35"/>
     <use x="127.246094" xlink:href="#DejaVuSans-35"/>
    </g>
   </g>
   <g id="text_76">
    <!-- 410 -->
    <g transform="translate(272.503977 255.659499)scale(0.1 -0.1)">
     <use xlink:href="#DejaVuSans-34"/>
     <use x="63.623047" xlink:href="#DejaVuSans-31"/>
     <use x="127.246094" xlink:href="#DejaVuSans-30"/>
    </g>
   </g>
   <g id="text_77">
    <!-- 427 -->
    <g transform="translate(287.209068 255.142832)scale(0.1 -0.1)">
     <use xlink:href="#DejaVuSans-34"/>
     <use x="63.623047" xlink:href="#DejaVuSans-32"/>
     <use x="127.246094" xlink:href="#DejaVuSans-37"/>
    </g>
   </g>
   <g id="text_78">
    <!-- 304 -->
    <g transform="translate(301.914159 258.881076)scale(0.1 -0.1)">
     <use xlink:href="#DejaVuSans-33"/>
     <use x="63.623047" xlink:href="#DejaVuSans-30"/>
     <use x="127.246094" xlink:href="#DejaVuSans-34"/>
    </g>
   </g>
   <g id="text_79">
    <!-- 407 -->
    <g transform="translate(316.61925 255.750676)scale(0.1 -0.1)">
     <use xlink:href="#DejaVuSans-34"/>
     <use x="63.623047" xlink:href="#DejaVuSans-30"/>
     <use x="127.246094" xlink:href="#DejaVuSans-37"/>
    </g>
   </g>
   <g id="text_80">
    <!-- 332 -->
    <g transform="translate(331.324341 258.030093)scale(0.1 -0.1)">
     <use xlink:href="#DejaVuSans-33"/>
     <use x="63.623047" xlink:href="#DejaVuSans-33"/>
     <use x="127.246094" xlink:href="#DejaVuSans-32"/>
    </g>
   </g>
   <g id="text_81">
    <!-- 366 -->
    <g transform="translate(346.029432 256.996757)scale(0.1 -0.1)">
     <use xlink:href="#DejaVuSans-33"/>
     <use x="63.623047" xlink:href="#DejaVuSans-36"/>
     <use x="127.246094" xlink:href="#DejaVuSans-36"/>
    </g>
   </g>
   <g id="text_82">
    <!-- 364 -->
    <g transform="translate(360.734523 257.057542)scale(0.1 -0.1)">
     <use xlink:href="#DejaVuSans-33"/>
     <use x="63.623047" xlink:href="#DejaVuSans-36"/>
     <use x="127.246094" xlink:href="#DejaVuSans-34"/>
    </g>
   </g>
   <g id="text_83">
    <!-- 366 -->
    <g transform="translate(375.439614 256.996757)scale(0.1 -0.1)">
     <use xlink:href="#DejaVuSans-33"/>
     <use x="63.623047" xlink:href="#DejaVuSans-36"/>
     <use x="127.246094" xlink:href="#DejaVuSans-36"/>
    </g>
   </g>
   <g id="text_84">
    <!-- 372 -->
    <g transform="translate(390.144705 256.814404)scale(0.1 -0.1)">
     <use xlink:href="#DejaVuSans-33"/>
     <use x="63.623047" xlink:href="#DejaVuSans-37"/>
     <use x="127.246094" xlink:href="#DejaVuSans-32"/>
    </g>
   </g>
   <g id="text_85">
    <!-- 354 -->
    <g transform="translate(404.849795 257.361464)scale(0.1 -0.1)">
     <use xlink:href="#DejaVuSans-33"/>
     <use x="63.623047" xlink:href="#DejaVuSans-35"/>
     <use x="127.246094" xlink:href="#DejaVuSans-34"/>
    </g>
   </g>
   <g id="text_86">
    <!-- 371 -->
    <g transform="translate(419.554886 256.844796)scale(0.1 -0.1)">
     <use xlink:href="#DejaVuSans-33"/>
     <use x="63.623047" xlink:href="#DejaVuSans-37"/>
     <use x="127.246094" xlink:href="#DejaVuSans-31"/>
    </g>
   </g>
   <g id="text_87">
    <!-- Confirmed Cases in Ohio -->
    <defs>
     <path d="M 64.40625 67.28125 
L 64.40625 56.890625 
Q 59.421875 61.53125 53.78125 63.8125 
Q 48.140625 66.109375 41.796875 66.109375 
Q 29.296875 66.109375 22.65625 58.46875 
Q 16.015625 50.828125 16.015625 36.375 
Q 16.015625 21.96875 22.65625 14.328125 
Q 29.296875 6.6875 41.796875 6.6875 
Q 48.140625 6.6875 53.78125 8.984375 
Q 59.421875 11.28125 64.40625 15.921875 
L 64.40625 5.609375 
Q 59.234375 2.09375 53.4375 0.328125 
Q 47.65625 -1.421875 41.21875 -1.421875 
Q 24.65625 -1.421875 15.125 8.703125 
Q 5.609375 18.84375 5.609375 36.375 
Q 5.609375 53.953125 15.125 64.078125 
Q 24.65625 74.21875 41.21875 74.21875 
Q 47.75 74.21875 53.53125 72.484375 
Q 59.328125 70.75 64.40625 67.28125 
z
" id="DejaVuSans-43"/>
     <path d="M 30.609375 48.390625 
Q 23.390625 48.390625 19.1875 42.75 
Q 14.984375 37.109375 14.984375 27.296875 
Q 14.984375 17.484375 19.15625 11.84375 
Q 23.34375 6.203125 30.609375 6.203125 
Q 37.796875 6.203125 41.984375 11.859375 
Q 46.1875 17.53125 46.1875 27.296875 
Q 46.1875 37.015625 41.984375 42.703125 
Q 37.796875 48.390625 30.609375 48.390625 
z
M 30.609375 56 
Q 42.328125 56 49.015625 48.375 
Q 55.71875 40.765625 55.71875 27.296875 
Q 55.71875 13.875 49.015625 6.21875 
Q 42.328125 -1.421875 30.609375 -1.421875 
Q 18.84375 -1.421875 12.171875 6.21875 
Q 5.515625 13.875 5.515625 27.296875 
Q 5.515625 40.765625 12.171875 48.375 
Q 18.84375 56 30.609375 56 
z
" id="DejaVuSans-6f"/>
     <path d="M 54.890625 33.015625 
L 54.890625 0 
L 45.90625 0 
L 45.90625 32.71875 
Q 45.90625 40.484375 42.875 44.328125 
Q 39.84375 48.1875 33.796875 48.1875 
Q 26.515625 48.1875 22.3125 43.546875 
Q 18.109375 38.921875 18.109375 30.90625 
L 18.109375 0 
L 9.078125 0 
L 9.078125 54.6875 
L 18.109375 54.6875 
L 18.109375 46.1875 
Q 21.34375 51.125 25.703125 53.5625 
Q 30.078125 56 35.796875 56 
Q 45.21875 56 50.046875 50.171875 
Q 54.890625 44.34375 54.890625 33.015625 
z
" id="DejaVuSans-6e"/>
     <path d="M 37.109375 75.984375 
L 37.109375 68.5 
L 28.515625 68.5 
Q 23.6875 68.5 21.796875 66.546875 
Q 19.921875 64.59375 19.921875 59.515625 
L 19.921875 54.6875 
L 34.71875 54.6875 
L 34.71875 47.703125 
L 19.921875 47.703125 
L 19.921875 0 
L 10.890625 0 
L 10.890625 47.703125 
L 2.296875 47.703125 
L 2.296875 54.6875 
L 10.890625 54.6875 
L 10.890625 58.5 
Q 10.890625 67.625 15.140625 71.796875 
Q 19.390625 75.984375 28.609375 75.984375 
z
" id="DejaVuSans-66"/>
     <path d="M 9.421875 54.6875 
L 18.40625 54.6875 
L 18.40625 0 
L 9.421875 0 
z
M 9.421875 75.984375 
L 18.40625 75.984375 
L 18.40625 64.59375 
L 9.421875 64.59375 
z
" id="DejaVuSans-69"/>
     <path d="M 41.109375 46.296875 
Q 39.59375 47.171875 37.8125 47.578125 
Q 36.03125 48 33.890625 48 
Q 26.265625 48 22.1875 43.046875 
Q 18.109375 38.09375 18.109375 28.8125 
L 18.109375 0 
L 9.078125 0 
L 9.078125 54.6875 
L 18.109375 54.6875 
L 18.109375 46.1875 
Q 20.953125 51.171875 25.484375 53.578125 
Q 30.03125 56 36.53125 56 
Q 37.453125 56 38.578125 55.875 
Q 39.703125 55.765625 41.0625 55.515625 
z
" id="DejaVuSans-72"/>
     <path d="M 52 44.1875 
Q 55.375 50.25 60.0625 53.125 
Q 64.75 56 71.09375 56 
Q 79.640625 56 84.28125 50.015625 
Q 88.921875 44.046875 88.921875 33.015625 
L 88.921875 0 
L 79.890625 0 
L 79.890625 32.71875 
Q 79.890625 40.578125 77.09375 44.375 
Q 74.3125 48.1875 68.609375 48.1875 
Q 61.625 48.1875 57.5625 43.546875 
Q 53.515625 38.921875 53.515625 30.90625 
L 53.515625 0 
L 44.484375 0 
L 44.484375 32.71875 
Q 44.484375 40.625 41.703125 44.40625 
Q 38.921875 48.1875 33.109375 48.1875 
Q 26.21875 48.1875 22.15625 43.53125 
Q 18.109375 38.875 18.109375 30.90625 
L 18.109375 0 
L 9.078125 0 
L 9.078125 54.6875 
L 18.109375 54.6875 
L 18.109375 46.1875 
Q 21.1875 51.21875 25.484375 53.609375 
Q 29.78125 56 35.6875 56 
Q 41.65625 56 45.828125 52.96875 
Q 50 49.953125 52 44.1875 
z
" id="DejaVuSans-6d"/>
     <path d="M 56.203125 29.59375 
L 56.203125 25.203125 
L 14.890625 25.203125 
Q 15.484375 15.921875 20.484375 11.0625 
Q 25.484375 6.203125 34.421875 6.203125 
Q 39.59375 6.203125 44.453125 7.46875 
Q 49.3125 8.734375 54.109375 11.28125 
L 54.109375 2.78125 
Q 49.265625 0.734375 44.1875 -0.34375 
Q 39.109375 -1.421875 33.890625 -1.421875 
Q 20.796875 -1.421875 13.15625 6.1875 
Q 5.515625 13.8125 5.515625 26.8125 
Q 5.515625 40.234375 12.765625 48.109375 
Q 20.015625 56 32.328125 56 
Q 43.359375 56 49.78125 48.890625 
Q 56.203125 41.796875 56.203125 29.59375 
z
M 47.21875 32.234375 
Q 47.125 39.59375 43.09375 43.984375 
Q 39.0625 48.390625 32.421875 48.390625 
Q 24.90625 48.390625 20.390625 44.140625 
Q 15.875 39.890625 15.1875 32.171875 
z
" id="DejaVuSans-65"/>
     <path d="M 45.40625 46.390625 
L 45.40625 75.984375 
L 54.390625 75.984375 
L 54.390625 0 
L 45.40625 0 
L 45.40625 8.203125 
Q 42.578125 3.328125 38.25 0.953125 
Q 33.9375 -1.421875 27.875 -1.421875 
Q 17.96875 -1.421875 11.734375 6.484375 
Q 5.515625 14.40625 5.515625 27.296875 
Q 5.515625 40.1875 11.734375 48.09375 
Q 17.96875 56 27.875 56 
Q 33.9375 56 38.25 53.625 
Q 42.578125 51.265625 45.40625 46.390625 
z
M 14.796875 27.296875 
Q 14.796875 17.390625 18.875 11.75 
Q 22.953125 6.109375 30.078125 6.109375 
Q 37.203125 6.109375 41.296875 11.75 
Q 45.40625 17.390625 45.40625 27.296875 
Q 45.40625 37.203125 41.296875 42.84375 
Q 37.203125 48.484375 30.078125 48.484375 
Q 22.953125 48.484375 18.875 42.84375 
Q 14.796875 37.203125 14.796875 27.296875 
z
" id="DejaVuSans-64"/>
     <path id="DejaVuSans-20"/>
     <path d="M 34.28125 27.484375 
Q 23.390625 27.484375 19.1875 25 
Q 14.984375 22.515625 14.984375 16.5 
Q 14.984375 11.71875 18.140625 8.90625 
Q 21.296875 6.109375 26.703125 6.109375 
Q 34.1875 6.109375 38.703125 11.40625 
Q 43.21875 16.703125 43.21875 25.484375 
L 43.21875 27.484375 
z
M 52.203125 31.203125 
L 52.203125 0 
L 43.21875 0 
L 43.21875 8.296875 
Q 40.140625 3.328125 35.546875 0.953125 
Q 30.953125 -1.421875 24.3125 -1.421875 
Q 15.921875 -1.421875 10.953125 3.296875 
Q 6 8.015625 6 15.921875 
Q 6 25.140625 12.171875 29.828125 
Q 18.359375 34.515625 30.609375 34.515625 
L 43.21875 34.515625 
L 43.21875 35.40625 
Q 43.21875 41.609375 39.140625 45 
Q 35.0625 48.390625 27.6875 48.390625 
Q 23 48.390625 18.546875 47.265625 
Q 14.109375 46.140625 10.015625 43.890625 
L 10.015625 52.203125 
Q 14.9375 54.109375 19.578125 55.046875 
Q 24.21875 56 28.609375 56 
Q 40.484375 56 46.34375 49.84375 
Q 52.203125 43.703125 52.203125 31.203125 
z
" id="DejaVuSans-61"/>
     <path d="M 44.28125 53.078125 
L 44.28125 44.578125 
Q 40.484375 46.53125 36.375 47.5 
Q 32.28125 48.484375 27.875 48.484375 
Q 21.1875 48.484375 17.84375 46.4375 
Q 14.5 44.390625 14.5 40.28125 
Q 14.5 37.15625 16.890625 35.375 
Q 19.28125 33.59375 26.515625 31.984375 
L 29.59375 31.296875 
Q 39.15625 29.25 43.1875 25.515625 
Q 47.21875 21.78125 47.21875 15.09375 
Q 47.21875 7.46875 41.1875 3.015625 
Q 35.15625 -1.421875 24.609375 -1.421875 
Q 20.21875 -1.421875 15.453125 -0.5625 
Q 10.6875 0.296875 5.421875 2 
L 5.421875 11.28125 
Q 10.40625 8.6875 15.234375 7.390625 
Q 20.0625 6.109375 24.8125 6.109375 
Q 31.15625 6.109375 34.5625 8.28125 
Q 37.984375 10.453125 37.984375 14.40625 
Q 37.984375 18.0625 35.515625 20.015625 
Q 33.0625 21.96875 24.703125 23.78125 
L 21.578125 24.515625 
Q 13.234375 26.265625 9.515625 29.90625 
Q 5.8125 33.546875 5.8125 39.890625 
Q 5.8125 47.609375 11.28125 51.796875 
Q 16.75 56 26.8125 56 
Q 31.78125 56 36.171875 55.265625 
Q 40.578125 54.546875 44.28125 53.078125 
z
" id="DejaVuSans-73"/>
     <path d="M 39.40625 66.21875 
Q 28.65625 66.21875 22.328125 58.203125 
Q 16.015625 50.203125 16.015625 36.375 
Q 16.015625 22.609375 22.328125 14.59375 
Q 28.65625 6.59375 39.40625 6.59375 
Q 50.140625 6.59375 56.421875 14.59375 
Q 62.703125 22.609375 62.703125 36.375 
Q 62.703125 50.203125 56.421875 58.203125 
Q 50.140625 66.21875 39.40625 66.21875 
z
M 39.40625 74.21875 
Q 54.734375 74.21875 63.90625 63.9375 
Q 73.09375 53.65625 73.09375 36.375 
Q 73.09375 19.140625 63.90625 8.859375 
Q 54.734375 -1.421875 39.40625 -1.421875 
Q 24.03125 -1.421875 14.8125 8.828125 
Q 5.609375 19.09375 5.609375 36.375 
Q 5.609375 53.65625 14.8125 63.9375 
Q 24.03125 74.21875 39.40625 74.21875 
z
" id="DejaVuSans-4f"/>
     <path d="M 54.890625 33.015625 
L 54.890625 0 
L 45.90625 0 
L 45.90625 32.71875 
Q 45.90625 40.484375 42.875 44.328125 
Q 39.84375 48.1875 33.796875 48.1875 
Q 26.515625 48.1875 22.3125 43.546875 
Q 18.109375 38.921875 18.109375 30.90625 
L 18.109375 0 
L 9.078125 0 
L 9.078125 75.984375 
L 18.109375 75.984375 
L 18.109375 46.1875 
Q 21.34375 51.125 25.703125 53.5625 
Q 30.078125 56 35.796875 56 
Q 45.21875 56 50.046875 50.171875 
Q 54.890625 44.34375 54.890625 33.015625 
z
" id="DejaVuSans-68"/>
    </defs>
    <g transform="translate(171.168125 19.44)scale(0.12 -0.12)">
     <use xlink:href="#DejaVuSans-43"/>
     <use x="69.824219" xlink:href="#DejaVuSans-6f"/>
     <use x="131.005859" xlink:href="#DejaVuSans-6e"/>
     <use x="194.384766" xlink:href="#DejaVuSans-66"/>
     <use x="229.589844" xlink:href="#DejaVuSans-69"/>
     <use x="257.373047" xlink:href="#DejaVuSans-72"/>
     <use x="298.470703" xlink:href="#DejaVuSans-6d"/>
     <use x="395.882812" xlink:href="#DejaVuSans-65"/>
     <use x="457.40625" xlink:href="#DejaVuSans-64"/>
     <use x="520.882812" xlink:href="#DejaVuSans-20"/>
     <use x="552.669922" xlink:href="#DejaVuSans-43"/>
     <use x="622.494141" xlink:href="#DejaVuSans-61"/>
     <use x="683.773438" xlink:href="#DejaVuSans-73"/>
     <use x="735.873047" xlink:href="#DejaVuSans-65"/>
     <use x="797.396484" xlink:href="#DejaVuSans-73"/>
     <use x="849.496094" xlink:href="#DejaVuSans-20"/>
     <use x="881.283203" xlink:href="#DejaVuSans-69"/>
     <use x="909.066406" xlink:href="#DejaVuSans-6e"/>
     <use x="972.445312" xlink:href="#DejaVuSans-20"/>
     <use x="1004.232422" xlink:href="#DejaVuSans-4f"/>
     <use x="1082.943359" xlink:href="#DejaVuSans-68"/>
     <use x="1146.322266" xlink:href="#DejaVuSans-69"/>
     <use x="1174.105469" xlink:href="#DejaVuSans-6f"/>
    </g>
   </g>
   <g id="legend_1">
    <g id="patch_7">
     <path d="M 50.09 62.79625 
L 200.7275 62.79625 
Q 202.7275 62.79625 202.7275 60.79625 
L 202.7275 32.44 
Q 202.7275 30.44 200.7275 30.44 
L 50.09 30.44 
Q 48.09 30.44 48.09 32.44 
L 48.09 60.79625 
Q 48.09 62.79625 50.09 62.79625 
z
" style="fill:#ffffff;opacity:0.8;stroke:#cccccc;stroke-linejoin:miter;"/>
    </g>
    <g id="line2d_38">
     <path d="M 52.09 38.538437 
L 72.09 38.538437 
" style="fill:none;stroke:#ff0000;stroke-linecap:square;stroke-width:2;"/>
    </g>
    <g id="line2d_39">
     <g>
      <use style="fill:#ff0000;stroke:#ff0000;" x="62.09" xlink:href="#mebf5f02687" y="38.538437"/>
     </g>
    </g>
    <g id="text_88">
     <!-- Total Confirmed Cases -->
     <defs>
      <path d="M -0.296875 72.90625 
L 61.375 72.90625 
L 61.375 64.59375 
L 35.5 64.59375 
L 35.5 0 
L 25.59375 0 
L 25.59375 64.59375 
L -0.296875 64.59375 
z
" id="DejaVuSans-54"/>
      <path d="M 18.3125 70.21875 
L 18.3125 54.6875 
L 36.8125 54.6875 
L 36.8125 47.703125 
L 18.3125 47.703125 
L 18.3125 18.015625 
Q 18.3125 11.328125 20.140625 9.421875 
Q 21.96875 7.515625 27.59375 7.515625 
L 36.8125 7.515625 
L 36.8125 0 
L 27.59375 0 
Q 17.1875 0 13.234375 3.875 
Q 9.28125 7.765625 9.28125 18.015625 
L 9.28125 47.703125 
L 2.6875 47.703125 
L 2.6875 54.6875 
L 9.28125 54.6875 
L 9.28125 70.21875 
z
" id="DejaVuSans-74"/>
      <path d="M 9.421875 75.984375 
L 18.40625 75.984375 
L 18.40625 0 
L 9.421875 0 
z
" id="DejaVuSans-6c"/>
     </defs>
     <g transform="translate(80.09 42.038437)scale(0.1 -0.1)">
      <use xlink:href="#DejaVuSans-54"/>
      <use x="60.818359" xlink:href="#DejaVuSans-6f"/>
      <use x="122" xlink:href="#DejaVuSans-74"/>
      <use x="161.208984" xlink:href="#DejaVuSans-61"/>
      <use x="222.488281" xlink:href="#DejaVuSans-6c"/>
      <use x="250.271484" xlink:href="#DejaVuSans-20"/>
      <use x="282.058594" xlink:href="#DejaVuSans-43"/>
      <use x="351.882812" xlink:href="#DejaVuSans-6f"/>
      <use x="413.064453" xlink:href="#DejaVuSans-6e"/>
      <use x="476.443359" xlink:href="#DejaVuSans-66"/>
      <use x="511.648438" xlink:href="#DejaVuSans-69"/>
      <use x="539.431641" xlink:href="#DejaVuSans-72"/>
      <use x="580.529297" xlink:href="#DejaVuSans-6d"/>
      <use x="677.941406" xlink:href="#DejaVuSans-65"/>
      <use x="739.464844" xlink:href="#DejaVuSans-64"/>
      <use x="802.941406" xlink:href="#DejaVuSans-20"/>
      <use x="834.728516" xlink:href="#DejaVuSans-43"/>
      <use x="904.552734" xlink:href="#DejaVuSans-61"/>
      <use x="965.832031" xlink:href="#DejaVuSans-73"/>
      <use x="1017.931641" xlink:href="#DejaVuSans-65"/>
      <use x="1079.455078" xlink:href="#DejaVuSans-73"/>
     </g>
    </g>
    <g id="line2d_40">
     <path d="M 52.09 53.216562 
L 72.09 53.216562 
" style="fill:none;stroke:#ffa500;stroke-linecap:square;stroke-width:2;"/>
    </g>
    <g id="line2d_41">
     <g>
      <use style="fill:#ffa500;stroke:#ffa500;" x="62.09" xlink:href="#mfebd5eba8f" y="53.216562"/>
     </g>
    </g>
    <g id="text_89">
     <!-- Newly Confirmed Cases -->
     <defs>
      <path d="M 9.8125 72.90625 
L 23.09375 72.90625 
L 55.421875 11.921875 
L 55.421875 72.90625 
L 64.984375 72.90625 
L 64.984375 0 
L 51.703125 0 
L 19.390625 60.984375 
L 19.390625 0 
L 9.8125 0 
z
" id="DejaVuSans-4e"/>
      <path d="M 4.203125 54.6875 
L 13.1875 54.6875 
L 24.421875 12.015625 
L 35.59375 54.6875 
L 46.1875 54.6875 
L 57.421875 12.015625 
L 68.609375 54.6875 
L 77.59375 54.6875 
L 63.28125 0 
L 52.6875 0 
L 40.921875 44.828125 
L 29.109375 0 
L 18.5 0 
z
" id="DejaVuSans-77"/>
      <path d="M 32.171875 -5.078125 
Q 28.375 -14.84375 24.75 -17.8125 
Q 21.140625 -20.796875 15.09375 -20.796875 
L 7.90625 -20.796875 
L 7.90625 -13.28125 
L 13.1875 -13.28125 
Q 16.890625 -13.28125 18.9375 -11.515625 
Q 21 -9.765625 23.484375 -3.21875 
L 25.09375 0.875 
L 2.984375 54.6875 
L 12.5 54.6875 
L 29.59375 11.921875 
L 46.6875 54.6875 
L 56.203125 54.6875 
z
" id="DejaVuSans-79"/>
     </defs>
     <g transform="translate(80.09 56.716562)scale(0.1 -0.1)">
      <use xlink:href="#DejaVuSans-4e"/>
      <use x="74.804688" xlink:href="#DejaVuSans-65"/>
      <use x="136.328125" xlink:href="#DejaVuSans-77"/>
      <use x="218.115234" xlink:href="#DejaVuSans-6c"/>
      <use x="245.898438" xlink:href="#DejaVuSans-79"/>
      <use x="305.078125" xlink:href="#DejaVuSans-20"/>
      <use x="336.865234" xlink:href="#DejaVuSans-43"/>
      <use x="406.689453" xlink:href="#DejaVuSans-6f"/>
      <use x="467.871094" xlink:href="#DejaVuSans-6e"/>
      <use x="531.25" xlink:href="#DejaVuSans-66"/>
      <use x="566.455078" xlink:href="#DejaVuSans-69"/>
      <use x="594.238281" xlink:href="#DejaVuSans-72"/>
      <use x="635.335938" xlink:href="#DejaVuSans-6d"/>
      <use x="732.748047" xlink:href="#DejaVuSans-65"/>
      <use x="794.271484" xlink:href="#DejaVuSans-64"/>
      <use x="857.748047" xlink:href="#DejaVuSans-20"/>
      <use x="889.535156" xlink:href="#DejaVuSans-43"/>
      <use x="959.359375" xlink:href="#DejaVuSans-61"/>
      <use x="1020.638672" xlink:href="#DejaVuSans-73"/>
      <use x="1072.738281" xlink:href="#DejaVuSans-65"/>
      <use x="1134.261719" xlink:href="#DejaVuSans-73"/>
     </g>
    </g>
   </g>
  </g>
 </g>
 <defs>
  <clipPath id="p8667715bae">
   <rect height="244.76" width="404.39" x="43.09" y="25.44"/>
  </clipPath>
 </defs>
</svg>
